<svg xmlns="http://www.w3.org/2000/svg" viewBox="0 0 520 458" font-family="'Segoe UI',Arial,sans-serif">
  <defs>
    <filter id="s1"><feDropShadow dx="1" dy="2" flood-color="#000" flood-opacity="0.08" stdDeviation="3"/></filter>
    <marker id="ah" markerWidth="8" markerHeight="6" refX="8" refY="3" orient="auto"><path d="M0,0 L8,3 L0,6Z" fill="#78909C"/></marker>
  </defs>
  <rect x="10" y="10" width="500" height="438" rx="12" fill="#FAFAFA" stroke="#E0E0E0" stroke-width="1"/>
  <rect x="10" y="10" width="500" height="38" rx="12" fill="#3F51B5"/>
  <rect x="10" y="36" width="500" height="12" fill="#3F51B5"/>
  <text x="260" y="36" text-anchor="middle" fill="#fff" font-size="15" font-weight="bold">OLTP 架构</text>
  <rect x="30" y="68" width="460" height="60" rx="8" fill="#E8EAF6" stroke="#C5CAE9" stroke-width="1"/>
  <text x="50" y="86" fill="#3F51B5" font-size="11" font-weight="bold">应用层</text>
  <g filter="url(#s1)">
    <rect x="180" y="78" width="160" height="36" rx="6" fill="#fff" stroke="#9FA8DA" stroke-width="1"/>
    <text x="260" y="102" text-anchor="middle" fill="#333" font-size="13">业务应用</text>
  </g>
  <line x1="260" y1="128" x2="260" y2="148" stroke="#78909C" stroke-width="1.5" marker-end="url(#ah)"/>
  <rect x="30" y="148" width="460" height="60" rx="8" fill="#E3F2FD" stroke="#90CAF9" stroke-width="1"/>
  <text x="50" y="166" fill="#1565C0" font-size="11" font-weight="bold">连接层</text>
  <g filter="url(#s1)">
    <rect x="180" y="158" width="160" height="36" rx="6" fill="#fff" stroke="#90CAF9" stroke-width="1"/>
    <text x="260" y="182" text-anchor="middle" fill="#333" font-size="13">连接池</text>
  </g>
  <line x1="260" y1="208" x2="260" y2="228" stroke="#78909C" stroke-width="1.5" marker-end="url(#ah)"/>
  <rect x="30" y="228" width="460" height="120" rx="8" fill="#FFF3E0" stroke="#FFCC80" stroke-width="1"/>
  <text x="50" y="246" fill="#E65100" font-size="11" font-weight="bold">数据库层</text>
  <g filter="url(#s1)">
    <rect x="50" y="258" width="120" height="36" rx="6" fill="#fff" stroke="#FFCC80" stroke-width="1"/>
    <text x="110" y="282" text-anchor="middle" fill="#333" font-size="13">Buffer Pool</text>
  </g>
  <g filter="url(#s1)">
    <rect x="200" y="258" width="120" height="36" rx="6" fill="#fff" stroke="#FFCC80" stroke-width="1"/>
    <text x="260" y="282" text-anchor="middle" fill="#333" font-size="13">Redo Log</text>
  </g>
  <g filter="url(#s1)">
    <rect x="350" y="258" width="120" height="36" rx="6" fill="#fff" stroke="#FFCC80" stroke-width="1"/>
    <text x="410" y="282" text-anchor="middle" fill="#333" font-size="13">锁管理器</text>
  </g>
  <g filter="url(#s1)">
    <rect x="200" y="304" width="120" height="36" rx="6" fill="#fff" stroke="#FFCC80" stroke-width="1"/>
    <text x="260" y="328" text-anchor="middle" fill="#333" font-size="13">数据文件</text>
  </g>
  <line x1="260" y1="348" x2="260" y2="368" stroke="#78909C" stroke-width="1.5" marker-end="url(#ah)"/>
  <rect x="30" y="368" width="460" height="60" rx="8" fill="#FCE4EC" stroke="#F48FB1" stroke-width="1"/>
  <text x="50" y="386" fill="#C2185B" font-size="11" font-weight="bold">存储层</text>
  <g filter="url(#s1)">
    <rect x="180" y="378" width="160" height="36" rx="6" fill="#fff" stroke="#F48FB1" stroke-width="1"/>
    <text x="260" y="402" text-anchor="middle" fill="#333" font-size="13">行式存储</text>
  </g>
</svg>