<svg xmlns="http://www.w3.org/2000/svg" viewBox="0 0 820 250" font-family="'Segoe UI',Arial,sans-serif">
  <defs>
    <filter id="s1"><feDropShadow dx="1" dy="2" flood-color="#000" flood-opacity="0.1" stdDeviation="3"/></filter>
    <marker id="ah" markerWidth="8" markerHeight="6" refX="8" refY="3" orient="auto"><path d="M0,0 L8,3 L0,6Z" fill="#5C6BC0"/></marker>
  </defs>
  <g filter="url(#s1)">
    <rect x="20" y="20" width="180" height="210" rx="8" fill="#fff" stroke="#C5CAE9" stroke-width="1.5"/>
    <path d="M28,20 H192 Q200,20 200,28 V50 H20 V28 Q20,20 28,20Z" fill="#3F51B5"/>
    <text x="110" y="42" text-anchor="middle" fill="#fff" font-size="14" font-weight="bold">users</text>
    <line x1="20" y1="50" x2="200" y2="50" stroke="#C5CAE9" stroke-width="0.5"/>
    <text x="36" y="76" fill="#FF9800" font-size="11" font-weight="bold">PK</text>
    <text x="68" y="76" fill="#333" font-size="13">user_id</text>
    <text x="36" y="106" fill="#999" font-size="11">　</text>
    <text x="68" y="106" fill="#333" font-size="13">name</text>
    <text x="36" y="136" fill="#999" font-size="11">　</text>
    <text x="68" y="136" fill="#333" font-size="13">email</text>
    <text x="36" y="166" fill="#999" font-size="11">　</text>
    <text x="68" y="166" fill="#333" font-size="13">phone</text>
  </g>
  <g filter="url(#s1)">
    <rect x="300" y="20" width="200" height="210" rx="8" fill="#fff" stroke="#C5CAE9" stroke-width="1.5"/>
    <path d="M308,20 H492 Q500,20 500,28 V50 H300 V28 Q300,20 308,20Z" fill="#3F51B5"/>
    <text x="400" y="42" text-anchor="middle" fill="#fff" font-size="14" font-weight="bold">orders</text>
    <line x1="300" y1="50" x2="500" y2="50" stroke="#C5CAE9" stroke-width="0.5"/>
    <text x="316" y="76" fill="#FF9800" font-size="11" font-weight="bold">PK</text>
    <text x="348" y="76" fill="#333" font-size="13">order_id</text>
    <text x="316" y="106" fill="#E65100" font-size="11" font-weight="bold">FK</text>
    <text x="348" y="106" fill="#333" font-size="13">user_id</text>
    <text x="316" y="136" fill="#999" font-size="11">　</text>
    <text x="348" y="136" fill="#333" font-size="13">total_amount</text>
    <text x="316" y="166" fill="#999" font-size="11">　</text>
    <text x="348" y="166" fill="#333" font-size="13">status</text>
    <text x="316" y="196" fill="#999" font-size="11">　</text>
    <text x="348" y="196" fill="#333" font-size="13">create_time</text>
  </g>
  <g filter="url(#s1)">
    <rect x="600" y="20" width="200" height="210" rx="8" fill="#fff" stroke="#C5CAE9" stroke-width="1.5"/>
    <path d="M608,20 H792 Q800,20 800,28 V50 H600 V28 Q600,20 608,20Z" fill="#3F51B5"/>
    <text x="700" y="42" text-anchor="middle" fill="#fff" font-size="14" font-weight="bold">order_items</text>
    <line x1="600" y1="50" x2="800" y2="50" stroke="#C5CAE9" stroke-width="0.5"/>
    <text x="616" y="76" fill="#FF9800" font-size="11" font-weight="bold">PK</text>
    <text x="648" y="76" fill="#333" font-size="13">item_id</text>
    <text x="616" y="106" fill="#E65100" font-size="11" font-weight="bold">FK</text>
    <text x="648" y="106" fill="#333" font-size="13">order_id</text>
    <text x="616" y="136" fill="#E65100" font-size="11" font-weight="bold">FK</text>
    <text x="648" y="136" fill="#333" font-size="13">product_id</text>
    <text x="616" y="166" fill="#999" font-size="11">　</text>
    <text x="648" y="166" fill="#333" font-size="13">quantity</text>
    <text x="616" y="196" fill="#999" font-size="11">　</text>
    <text x="648" y="196" fill="#333" font-size="13">price</text>
  </g>
  <path d="M200,76 C240,76 260,106 300,106" fill="none" stroke="#5C6BC0" stroke-width="1.8" marker-end="url(#ah)"/>
  <path d="M500,76 C540,76 560,106 600,106" fill="none" stroke="#5C6BC0" stroke-width="1.8" marker-end="url(#ah)"/>
</svg>