<svg xmlns="http://www.w3.org/2000/svg" viewBox="0 0 750 280" width="750" height="280">
  <defs>
    <linearGradient id="nodeGrad" x1="0%" y1="0%" x2="100%" y2="100%">
      <stop offset="0%" style="stop-color:#e8f5e9;stop-opacity:1" />
      <stop offset="100%" style="stop-color:#c8e6c9;stop-opacity:1" />
    </linearGradient>
    <linearGradient id="headGrad" x1="0%" y1="0%" x2="100%" y2="100%">
      <stop offset="0%" style="stop-color:#fff3e0;stop-opacity:1" />
      <stop offset="100%" style="stop-color:#ffe0b2;stop-opacity:1" />
    </linearGradient>
    <filter id="shadow" x="-20%" y="-20%" width="140%" height="140%">
      <feDropShadow dx="1" dy="1" stdDeviation="1" flood-color="#00000020"/>
    </filter>
    <marker id="arrow" markerWidth="8" markerHeight="8" refX="7" refY="3" orient="auto" markerUnits="strokeWidth">
      <path d="M0,0 L0,6 L7,3 z" fill="#546e7a"/>
    </marker>
  </defs>
  
  <rect x="5" y="5" width="740" height="270" rx="10" fill="#fafafa" filter="url(#shadow)"/>
  <text x="375" y="28" text-anchor="middle" font-family="Microsoft YaHei, Arial, sans-serif" font-size="13" font-weight="bold" fill="#37474f">跳表结构（Skip List）</text>
  
  <g font-family="Consolas, monospace" font-size="9" fill="#78909c">
    <text x="30" y="60">Level 3</text>
    <text x="30" y="100">Level 2</text>
    <text x="30" y="140">Level 1</text>
    <text x="30" y="180">Level 0</text>
  </g>
  
  <g font-family="Consolas, monospace" font-size="11">
    <rect x="70" y="45" width="45" height="22" rx="4" fill="url(#headGrad)" filter="url(#shadow)"/>
    <text x="92" y="60" text-anchor="middle" fill="#e65100" font-weight="bold">Head</text>
    
    <rect x="70" y="85" width="45" height="22" rx="4" fill="url(#headGrad)" filter="url(#shadow)"/>
    <text x="92" y="100" text-anchor="middle" fill="#e65100" font-weight="bold">Head</text>
    
    <rect x="70" y="125" width="45" height="22" rx="4" fill="url(#headGrad)" filter="url(#shadow)"/>
    <text x="92" y="140" text-anchor="middle" fill="#e65100" font-weight="bold">Head</text>
    
    <rect x="70" y="165" width="45" height="22" rx="4" fill="url(#headGrad)" filter="url(#shadow)"/>
    <text x="92" y="180" text-anchor="middle" fill="#e65100" font-weight="bold">Head</text>
  </g>
  
  <g stroke="#bdbdbd" stroke-width="1" stroke-dasharray="3,2">
    <line x1="92" y1="67" x2="92" y2="83"/>
    <line x1="92" y1="107" x2="92" y2="123"/>
    <line x1="92" y1="147" x2="92" y2="163"/>
  </g>
  
  <g font-family="Consolas, monospace" font-size="11" font-weight="bold">
    <rect x="160" y="165" width="35" height="22" rx="4" fill="url(#nodeGrad)" filter="url(#shadow)"/>
    <text x="177" y="180" text-anchor="middle" fill="#2e7d32">5</text>
    
    <rect x="230" y="125" width="35" height="22" rx="4" fill="url(#nodeGrad)" filter="url(#shadow)"/>
    <text x="247" y="140" text-anchor="middle" fill="#2e7d32">10</text>
    <rect x="230" y="165" width="35" height="22" rx="4" fill="url(#nodeGrad)" filter="url(#shadow)"/>
    <text x="247" y="180" text-anchor="middle" fill="#2e7d32">10</text>
    
    <rect x="300" y="165" width="35" height="22" rx="4" fill="url(#nodeGrad)" filter="url(#shadow)"/>
    <text x="317" y="180" text-anchor="middle" fill="#2e7d32">15</text>
    
    <rect x="370" y="85" width="35" height="22" rx="4" fill="url(#nodeGrad)" filter="url(#shadow)"/>
    <text x="387" y="100" text-anchor="middle" fill="#2e7d32">25</text>
    <rect x="370" y="125" width="35" height="22" rx="4" fill="url(#nodeGrad)" filter="url(#shadow)"/>
    <text x="387" y="140" text-anchor="middle" fill="#2e7d32">25</text>
    <rect x="370" y="165" width="35" height="22" rx="4" fill="url(#nodeGrad)" filter="url(#shadow)"/>
    <text x="387" y="180" text-anchor="middle" fill="#2e7d32">25</text>
    
    <rect x="440" y="125" width="35" height="22" rx="4" fill="url(#nodeGrad)" filter="url(#shadow)"/>
    <text x="457" y="140" text-anchor="middle" fill="#2e7d32">35</text>
    <rect x="440" y="165" width="35" height="22" rx="4" fill="url(#nodeGrad)" filter="url(#shadow)"/>
    <text x="457" y="180" text-anchor="middle" fill="#2e7d32">35</text>
    
    <rect x="510" y="85" width="35" height="22" rx="4" fill="url(#nodeGrad)" filter="url(#shadow)"/>
    <text x="527" y="100" text-anchor="middle" fill="#2e7d32">50</text>
    <rect x="510" y="125" width="35" height="22" rx="4" fill="url(#nodeGrad)" filter="url(#shadow)"/>
    <text x="527" y="140" text-anchor="middle" fill="#2e7d32">50</text>
    <rect x="510" y="165" width="35" height="22" rx="4" fill="url(#nodeGrad)" filter="url(#shadow)"/>
    <text x="527" y="180" text-anchor="middle" fill="#2e7d32">50</text>
    
    <rect x="580" y="125" width="35" height="22" rx="4" fill="url(#nodeGrad)" filter="url(#shadow)"/>
    <text x="597" y="140" text-anchor="middle" fill="#2e7d32">75</text>
    <rect x="580" y="165" width="35" height="22" rx="4" fill="url(#nodeGrad)" filter="url(#shadow)"/>
    <text x="597" y="180" text-anchor="middle" fill="#2e7d32">75</text>
    
    <rect x="650" y="45" width="40" height="22" rx="4" fill="url(#nodeGrad)" filter="url(#shadow)"/>
    <text x="670" y="60" text-anchor="middle" fill="#2e7d32">100</text>
    <rect x="650" y="85" width="40" height="22" rx="4" fill="url(#nodeGrad)" filter="url(#shadow)"/>
    <text x="670" y="100" text-anchor="middle" fill="#2e7d32">100</text>
    <rect x="650" y="125" width="40" height="22" rx="4" fill="url(#nodeGrad)" filter="url(#shadow)"/>
    <text x="670" y="140" text-anchor="middle" fill="#2e7d32">100</text>
    <rect x="650" y="165" width="40" height="22" rx="4" fill="url(#nodeGrad)" filter="url(#shadow)"/>
    <text x="670" y="180" text-anchor="middle" fill="#2e7d32">100</text>
  </g>
  
  <g stroke="#bdbdbd" stroke-width="1" stroke-dasharray="3,2">
    <line x1="247" y1="147" x2="247" y2="163"/>
    <line x1="387" y1="107" x2="387" y2="123"/>
    <line x1="387" y1="147" x2="387" y2="163"/>
    <line x1="457" y1="147" x2="457" y2="163"/>
    <line x1="527" y1="107" x2="527" y2="123"/>
    <line x1="527" y1="147" x2="527" y2="163"/>
    <line x1="597" y1="147" x2="597" y2="163"/>
    <line x1="670" y1="67" x2="670" y2="83"/>
    <line x1="670" y1="107" x2="670" y2="123"/>
    <line x1="670" y1="147" x2="670" y2="163"/>
  </g>
  
  <g stroke="#546e7a" stroke-width="1.5" fill="none">
    <line x1="115" y1="56" x2="648" y2="56" marker-end="url(#arrow)"/>
    
    <line x1="115" y1="96" x2="368" y2="96" marker-end="url(#arrow)"/>
    <line x1="405" y1="96" x2="508" y2="96" marker-end="url(#arrow)"/>
    <line x1="545" y1="96" x2="648" y2="96" marker-end="url(#arrow)"/>
    
    <line x1="115" y1="136" x2="228" y2="136" marker-end="url(#arrow)"/>
    <line x1="265" y1="136" x2="368" y2="136" marker-end="url(#arrow)"/>
    <line x1="405" y1="136" x2="438" y2="136" marker-end="url(#arrow)"/>
    <line x1="475" y1="136" x2="508" y2="136" marker-end="url(#arrow)"/>
    <line x1="545" y1="136" x2="578" y2="136" marker-end="url(#arrow)"/>
    <line x1="615" y1="136" x2="648" y2="136" marker-end="url(#arrow)"/>
    
    <line x1="115" y1="176" x2="158" y2="176" marker-end="url(#arrow)"/>
    <line x1="195" y1="176" x2="228" y2="176" marker-end="url(#arrow)"/>
    <line x1="265" y1="176" x2="298" y2="176" marker-end="url(#arrow)"/>
    <line x1="335" y1="176" x2="368" y2="176" marker-end="url(#arrow)"/>
    <line x1="405" y1="176" x2="438" y2="176" marker-end="url(#arrow)"/>
    <line x1="475" y1="176" x2="508" y2="176" marker-end="url(#arrow)"/>
    <line x1="545" y1="176" x2="578" y2="176" marker-end="url(#arrow)"/>
    <line x1="615" y1="176" x2="648" y2="176" marker-end="url(#arrow)"/>
  </g>
  
  <g font-family="Microsoft YaHei, Arial, sans-serif" font-size="9" fill="#78909c">
    <text x="375" y="220" text-anchor="middle">查找 50：Level 2 跳到 25 → 50（2 步）</text>
    <text x="375" y="235" text-anchor="middle">顺序查找：5 → 10 → 15 → 25 → 35 → 50（5 步）</text>
  </g>
  
  <g transform="translate(580, 205)">
    <rect x="0" y="0" width="150" height="55" rx="6" fill="#f5f5f5" stroke="#e0e0e0" stroke-width="1"/>
    <text x="75" y="16" text-anchor="middle" font-family="Microsoft YaHei, Arial, sans-serif" font-size="9" font-weight="bold" fill="#616161">节点高度分布</text>
    <text x="75" y="32" text-anchor="middle" font-family="Consolas, monospace" font-size="8" fill="#757575">100: 4层 | 25,50: 3层</text>
    <text x="75" y="46" text-anchor="middle" font-family="Consolas, monospace" font-size="8" fill="#757575">10,35,75: 2层 | 5,15: 1层</text>
  </g>
</svg>